General
Complete name               : The Dark Knight Rises[2012]BRrip[Ac3-5.1]-=[CaLvIn]=-
Imdb Link                        : http://www.imdb.com/title/tt1345836/
Format                           : AVI
Format/Info                      : Audio Video Interleave
File size                        : 1.34 GiB
Duration                         : 2h 44mn
Overall bit rate                 : 1 164 Kbps
Writing application              : VirtualDubMod 1.5.10.3 |
Writing library                  : VirtualDubMod build 2550/release

Video
ID                               : 0
Format                           : MPEG-4 Visual
Format profile                   : Advanced Simple@L5
Format settings, BVOP            : 2
Format settings, QPel            : No
Format settings, GMC             : No warppoints
Format settings, Matrix          : Default (H.263)
Codec ID                         : XVID
Codec ID/Hint                    : XviD
Duration                         : 2h 44mn
Bit rate                         : 899 Kbps
Width                            : 720 pixels
Height                           : 400 pixels
Display aspect ratio             : 16:9
Frame rate                       : 23.976 fps
Color space                      : YUV
Chroma subsampling               : 4:2:0
Bit depth                        : 8 bits
Scan type                        : Progressive
Compression mode                 : Lossy
Bits/(Pixel*Frame)               : 0.130
Stream size                      : 1.03 GiB (77%)
Writing library                  : XviD 1.2.1 (UTC 2008-12-04)

Audio
ID                               : 1
Format                           : AC-3
Format/Info                      : Audio Coding 3
Mode extension                   : CM (complete main)
Codec ID                         : 2000
Duration                         : 2h 44mn
Bit rate mode                    : Constant
Bit rate                         : 256 Kbps
Channel(s)                       : 6 channels
Channel positions                : Front: L C R, Side: L R, LFE
Sampling rate                    : 48.0 KHz
Bit depth                        : 16 bits
Compression mode                 : Lossy
Stream size                      : 301 MiB (22%)
Alignment                        : Split accross interleaves
Interleave, duration             : 42 ms (1.00 video frame)
Interleave, preload duration     : 500 ms


Screenshots
 
http://img204.imageshack.us/img204/9538/46994471.png 
http://img593.imageshack.us/img593/463/90423365.png 
http://img29.imageshack.us/img29/6928/41208901.png 
http://img338.imageshack.us/img338/5199/11034206.png 
http://img846.imageshack.us/img846/2609/56437067.png 
http://img402.imageshack.us/img402/4664/70694805.png 
http://img856.imageshack.us/img856/1527/86847691.png 
http://img22.imageshack.us/img22/8268/58966824.png 
http://img833.imageshack.us/img833/571/83033596.png 
http://img194.imageshack.us/img194/5659/24499377.png